PathFileType	4	(X/Y/Z)	64_2_45_p0_0-652_filt_butterworth.trc
DataRate	CameraRate	NumFrames	NumMarkers	Units	OrigDataRate	OrigDataStartFrame	OrigNumFrames
59.0	59.0	5	27	m	59.0	244	652
Frame#	Time	RHip			RKnee			RAnkle			RBigToe			RSmallToe			RHeel			LHip			LKnee			LAnkle			LBigToe			LSmallToe			LHeel			Neck			Head			Nose			RShoulder			RElbow			RWrist			RThumb			RIndex			RPinky			LShoulder			LElbow			LWrist			LThumb			LIndex			LPinky			
		X1	Y1	Z1	X2	Y2	Z2	X3	Y3	Z3	X4	Y4	Z4	X5	Y5	Z5	X6	Y6	Z6	X7	Y7	Z7	X8	Y8	Z8	X9	Y9	Z9	X10	Y10	Z10	X11	Y11	Z11	X12	Y12	Z12	X13	Y13	Z13	X14	Y14	Z14	X15	Y15	Z15	X16	Y16	Z16	X17	Y17	Z17	X18	Y18	Z18	X19	Y19	Z19	X20	Y20	Z20	X21	Y21	Z21	X22	Y22	Z22	X23	Y23	Z23	X24	Y24	Z24	X25	Y25	Z25	X26	Y26	Z26	X27	Y27	Z27	
244	4.135593220338983	0.31224018686306776	0.6744944850066366	0.5731698312608414	0.28524540494386724	0.9224209715964231	0.9367147154938662	0.258029393608435	1.203616086156406	1.3187475573166045	0.2768157422431136	1.1271545176485986	1.4150682970961381	0.3383091079318573	1.1296407687752557	1.3926796536721064	0.20541052930450496	1.3082505411729777	1.3436199566255969	0.10587537411962888	0.6670280404679257	0.5871341543525218	0.09044680690790077	0.9080836296519393	0.9570199396968945	0.07494311164755627	1.1883098774954892	1.346440112032932	0.13476440441851603	1.0627248801284295	1.4270389089348345	0.05832185116776069	1.0669417428015397	1.4122046820646228	0.07408795314651341	1.2558052018805133	1.3644168399626746	0.22016245855516803	0.45195890101914515	0.16030019326597011	0.27444869663477506	0.2546787035705451	0.003409012424801508	0.2684377710632542	0.2640713259226841	0.1332707152650677	0.3831966378932955	0.49566070711651855	0.23239423183684177	0.4067921822020889	0.6960119816379883	0.42880717181438127	0.3948370879405039	0.7435258281567398	0.6863493558841998	0.3640982652076369	0.700252729152106	0.7945758067180037	0.37666516230641867	0.7156422893259353	0.8051444066985904	0.3873069966292283	0.8037985175661848	0.7824102830534843	0.0889829595935304	0.4455882805902399	0.2513007626770316	0.013038525301818697	0.5706162672757225	0.4880155919680018	0.050579139148050435	0.6277503159962541	0.7273842911197621	0.09690344737936081	0.6832668945839475	0.8038942661997879	0.07040059093404506	0.6850524057039437	0.8374634209339846	0.028306531140745307	0.6837301415190279	0.8311740128096506
245	4.152542372881356	0.31326354696723463	0.6683799201680319	0.5745330928042557	0.28542065523722204	0.9225262589651129	0.9358288498580092	0.25803685514310404	1.2052421045485284	1.320237953895322	0.2792958274338856	1.1225267225159599	1.414661411309085	0.3398052583990538	1.1270156982739679	1.3929112515830007	0.20757134414055922	1.3075247102801917	1.3438996796819658	0.1069017117516871	0.6650704247435346	0.5897016141492291	0.09121783396696549	0.9064703531073066	0.9565721778524465	0.07495718944016885	1.1883043084665812	1.3465090358949323	0.13438791029421004	1.0684397203321323	1.428028781904945	0.05827795492809511	1.0669546302321276	1.4131578949363075	0.07363965208581902	1.255163319871079	1.3660661145190476	0.22030246531649608	0.45119824144095655	0.1603821794434332	0.27459510852305025	0.2546475008501444	0.005682001223306751	0.2685113164487225	0.26437337947687933	0.13415270712925612	0.38317195610299065	0.49539607363217986	0.23237809745687463	0.4066817432796354	0.7004077525988159	0.42880334946845344	0.39467464103549404	0.7437268729107296	0.687228273954015	0.3633820928678028	0.7031365910456117	0.7977534353655531	0.3732452108443341	0.7191344536675872	0.8060112009886737	0.3847385942499619	0.8091245249943966	0.7829522976471619	0.08908891000116803	0.445488766468903	0.2513814666593046	0.015386036180629769	0.5699826109469373	0.4894151994527367	0.05188199674425792	0.6283634347729018	0.7274279183299999	0.09782768830227549	0.6843757397369787	0.8058696004841062	0.07108222315386788	0.6878136859708717	0.8375797438578313	0.03256527489845179	0.6844373665313525	0.8301848323219255
246	4.169491525423729	0.31446618093015843	0.6667126675697735	0.5758868028578025	0.28632973365400566	0.9245892585145088	0.9353081860494402	0.2576701362971881	1.2054755378341147	1.321552478259174	0.280268238670279	1.1207298692654608	1.414479331682224	0.3432608898368589	1.1205930381943017	1.393458625392656	0.20990180883872092	1.3054968330533876	1.3443417616885567	0.10687208524136468	0.6653089735908839	0.5919681231589269	0.09095100868163311	0.9066360304582343	0.9575489803393589	0.07496675220926763	1.1882878756768804	1.34657068237017	0.13416634351419854	1.0729498946965623	1.429286545492287	0.05822000386345488	1.0669913956490062	1.4143323294694803	0.07283645285520658	1.2543306290085472	1.3674001998501344	0.22041630311285507	0.4510988554785994	0.1607535447843822	0.2746546977474823	0.25482779568812647	0.006676205041288527	0.26864149788142333	0.2647252357516102	0.13531176750710044	0.38315881886471087	0.4946352705911531	0.2322664297874684	0.4069625986912049	0.7003574105741548	0.42946468611712396	0.39381616085876353	0.7429663981008253	0.6875445453147864	0.36284863931923766	0.7052022614540112	0.7998893311463533	0.37096572793060184	0.7242078727548722	0.8067451129017251	0.3828190692267806	0.8130483154649377	0.7836778549364046	0.08910653138046856	0.4453846552878291	0.25136051886853317	0.0157993875287963	0.5722892061088971	0.4885984981543847	0.054697646888323626	0.6296561657902443	0.7266985663525213	0.10071570407894495	0.6835182753433602	0.807449789650748	0.07185242760352292	0.6905312543770125	0.8372862551112831	0.03712618429139519	0.6831476907273746	0.8293874005843909
247	4.186440677966102	0.3153335030131626	0.6674860099380365	0.5767697825029827	0.2880047429690142	0.9278152969478728	0.9345884781404923	0.2570145755021996	1.202962520675087	1.322357414871458	0.28028624160175614	1.120892317114773	1.414411030044267	0.3477385135981497	1.1132689627683579	1.3941372562570902	0.21104238470911985	1.303135978266805	1.3449859421114732	0.10662924495527458	0.6659566560870487	0.592269135368376	0.09054919850981773	0.9072157345205347	0.9594550210842369	0.07496842020554388	1.1882118187446014	1.3465992328127636	0.13421065085542605	1.0751586908977988	1.430191298296416	0.058283104972666616	1.0671174353550985	1.4151327915411898	0.07162452802432219	1.2525836929796466	1.3680760517886956	0.22046574991347648	0.4518181029826696	0.16135451418088048	0.2746586179338965	0.25493530625085686	0.0071524328570829665	0.26875154349575064	0.26493379915577336	0.13621410571702858	0.38316673058352263	0.49361201598948296	0.2319547227752326	0.40793913055900116	0.6934716368439775	0.43141743238112773	0.39260097089950247	0.7418316176298481	0.6877486690116617	0.3625802698237631	0.7060749747554496	0.8006831136152641	0.3711354035451336	0.7276537569720294	0.8075081245674449	0.3819779791898377	0.8149150641782121	0.7848861548609074	0.08876985211606235	0.4450374520869677	0.25147105251140567	0.01515167859671617	0.5774108421676758	0.48610754323152133	0.058567128233816414	0.6312283200555677	0.7251221262218898	0.10610510874740378	0.6794598194277989	0.8082776516733342	0.07435212552540593	0.6914532199206723	0.8363112210876282	0.043255129971463205	0.6785158283361793	0.8278362543351822
248	4.203389830508475	0.3156064936541634	0.6682314940182955	0.5771337505461686	0.28992383316244663	0.9300338864664681	0.9328234419812453	0.2561153771639336	1.1974007989287756	1.3227963556143183	0.2800771538634489	1.1216565586813927	1.4144085954196945	0.35106490538326274	1.10924877743472	1.3946171077732126	0.21129563329097273	1.3014057287857317	1.3455326153529437	0.10653458564261765	0.6657337568962534	0.5904046487074232	0.09045177095880541	0.9074460935673585	0.9605956510973697	0.07496352114694586	1.1880862026081904	1.3465865117395657	0.13442810808606706	1.075994573063061	1.4305238269785931	0.058527305593258847	1.0675314893420824	1.415624418282337	0.07045595048688442	1.2482629483166225	1.3683239653157973	0.2204516632306125	0.45278456356388175	0.1618105126040807	0.27466726003011643	0.2549756416280351	0.00789845576382023	0.2687673405598118	0.2649326937643562	0.13660345300054247	0.3832048839291775	0.4929244213748396	0.2315502118424222	0.40991415493382755	0.6827841057004362	0.4347196273788272	0.39168514098667495	0.7410751486598788	0.6879310329321964	0.3625535502937885	0.7059635043783176	0.800833697831959	0.37393479329664603	0.7276828988086795	0.8087218452456904	0.38167569933348217	0.8155942465322639	0.7868178819597004	0.08789155287375913	0.444210582982784	0.25180993400828616	0.014711502802080612	0.5816808960441993	0.4833897025752708	0.06221425567574861	0.6321552080708057	0.7229820485816385	0.11408386462837797	0.6710707095726358	0.8089675920312458	0.0810936360034143	0.6868748401745678	0.8353016495026149	0.04979904255132016	0.6729890623498864	0.8250453713247436
